<svg xmlns:xlink="http://www.w3.org/1999/xlink" viewBox="0 0 324 491" ed:vSpacing="30" ed:name="页面-1" ed:hSpacing="30" xmlns:ev="http://www.w3.org/2001/xml-events" id="page100" xmlns="http://www.w3.org/2000/svg" height="491" xmlns:ed="https://www.edrawsoft.com/xml/2017/SVGExtensions/" width="324"><style type="text/css"><![CDATA[
g[ed\:togtopicid],g[ed\:hyperlink],g[ed\:comment],g[ed\:note] {cursor:pointer;}
g[id] {-moz-user-select: none;-ms-user-select: none;user-select: none;}
svg text::selection,svg tspan::selection{background-color: #4285f4;color: #ffffff;fill: #ffffff;}
.st4 {fill:#303030;font-family:微软雅黑;font-size:10pt}
.st3 {fill:#303030;font-family:微软雅黑;font-size:14pt;font-weight:bold}
.st2 {fill:#ffffff;font-family:微软雅黑;font-size:18pt;font-weight:bold}
]]></style><defs/><rect y="0" x="0" fill="#ffffff" height="491" width="324"/><path stroke-width="3" stroke-linejoin="round" ed:tosuperid="110" stroke="#454545" stroke-linecap="round" id="111" transform="matrix(1,0,0,1,162,115)" ed:parentid="101" fill="none" d="M0,-30L0,-4.3C0,-4.3,0,-1.6,0,1.7L0,30"/><path stroke-linejoin="round" ed:tosuperid="112" stroke="#454545" stroke-linecap="round" id="113" transform="matrix(1,0,0,1,112.75,234.79)" ed:parentid="110" fill="none" d="M49.3,-22.5L49.3,-1.3L-43.3,-1.3C-46.6,-1.3,-49.3,1.4,-49.3,4.7L-49.3,22.5"/><path stroke-linejoin="round" ed:tosuperid="114" stroke="#454545" stroke-linecap="round" id="115" transform="matrix(1,0,0,1,63.5,320.07)" ed:parentid="112" fill="none" d="M0,-22.5L0,-1.3C0,-1.3,0,1.4,0,4.7L0,22.5"/><path stroke-linejoin="round" ed:tosuperid="116" stroke="#454545" stroke-linecap="round" id="117" transform="matrix(1,0,0,1,63.5,405.36)" ed:parentid="114" fill="none" d="M0,-22.5L0,-1.3C0,-1.3,0,1.4,0,4.7L0,22.5"/><path stroke-linejoin="round" ed:tosuperid="118" stroke="#454545" stroke-linecap="round" id="119" transform="matrix(1,0,0,1,186.63,234.79)" ed:parentid="110" fill="none" d="M-24.6,-1.3L18.6,-1.3C21.9,-1.3,24.6,1.4,24.6,4.7L24.6,22.5"/><path stroke-linejoin="round" ed:tosuperid="120" stroke="#454545" stroke-linecap="round" id="121" transform="matrix(1,0,0,1,235.88,320.07)" ed:parentid="118" fill="none" d="M-24.6,-1.3L18.6,-1.3C21.9,-1.3,24.6,1.4,24.6,4.7L24.6,22.5"/><path stroke-linejoin="round" ed:tosuperid="122" stroke="#454545" stroke-linecap="round" id="123" transform="matrix(1,0,0,1,260.5,405.36)" ed:parentid="120" fill="none" d="M0,-22.5L0,-1.3C0,-1.3,0,1.4,0,4.7L0,22.5"/><path stroke-linejoin="round" ed:tosuperid="124" stroke="#454545" stroke-linecap="round" id="125" transform="matrix(1,0,0,1,186.63,320.07)" ed:parentid="118" fill="none" d="M24.6,-22.5L24.6,-1.3L-18.6,-1.3C-21.9,-1.3,-24.6,1.4,-24.6,4.7L-24.6,22.5"/><path stroke-linejoin="round" ed:tosuperid="126" stroke="#454545" stroke-linecap="round" id="127" transform="matrix(1,0,0,1,162,405.36)" ed:parentid="124" fill="none" d="M0,-22.5L0,-1.3C0,-1.3,0,1.4,0,4.7L0,22.5"/><g ed:topictype="mainidea" ed:width="93" ed:layout="bottom" id="101" transform="matrix(1,0,0,1,115.5,21)" ed:height="64"><path stroke-width="3" stroke-linejoin="round" stroke="#00af54" fill="#00af54" d="M0,0L93,0L93,64L0,64L0,0z"/><text class="st2"><tspan y="40.9" style="white-space:pre" x="21">文档</tspan></text></g><g ed:width="113.1428571428571" id="110" transform="matrix(1,0,0,1,105.43,145)" ed:parentid="101" ed:height="67.28571428571428"><path stroke-width="2" stroke-linejoin="round" stroke="#454545" fill="#ffffff" d="M0,0L113.1,0L113.1,67.3L0,67.3L0,0z"/><text class="st3"><tspan y="27.7" style="white-space:pre" x="18">根元素 : </tspan><tspan y="52.8" style="white-space:pre" x="18">&lt;html></tspan></text></g><g ed:width="71.85714285714286" id="112" transform="matrix(1,0,0,1,27.57,257.29)" ed:parentid="110" ed:height="40.28571428571428"><path stroke-linejoin="round" stroke="#454545" fill="#ffffff" d="M0,0L71.9,0L71.9,40.3L0,40.3L0,0z"/><text class="st4"><tspan y="15.9" style="white-space:pre" x="9">元素 : </tspan><tspan y="33" style="white-space:pre" x="9">&lt;head></tspan></text></g><g ed:width="65" id="114" transform="matrix(1,0,0,1,31,342.57)" ed:parentid="112" ed:height="40.28571428571428"><path stroke-linejoin="round" stroke="#454545" fill="#ffffff" d="M0,0L65,0L65,40.3L0,40.3L0,0z"/><text class="st4"><tspan y="15.9" style="white-space:pre" x="9">元素 : </tspan><tspan y="33" style="white-space:pre" x="9">&lt;title></tspan></text></g><g ed:width="85" id="116" transform="matrix(1,0,0,1,21,427.86)" ed:parentid="114" ed:height="40.28571428571428"><path stroke-linejoin="round" stroke="#454545" fill="#ffffff" d="M0,0L85,0L85,40.3L0,40.3L0,0z"/><text class="st4"><tspan y="15.9" style="white-space:pre" x="9">文本 : </tspan><tspan y="33" style="white-space:pre" x="9">"文档标题"</tspan></text></g><g ed:width="73" id="118" transform="matrix(1,0,0,1,174.75,257.29)" ed:parentid="110" ed:height="40.28571428571428"><path stroke-linejoin="round" stroke="#454545" fill="#ffffff" d="M0,0L73,0L73,40.3L0,40.3L0,0z"/><text class="st4"><tspan y="15.9" style="white-space:pre" x="9">元素 : </tspan><tspan y="33" style="white-space:pre" x="9">&lt;body></tspan></text></g><g ed:width="58.71428571428572" id="120" transform="matrix(1,0,0,1,231.14,342.57)" ed:parentid="118" ed:height="40.28571428571428"><path stroke-linejoin="round" stroke="#454545" fill="#ffffff" d="M0,0L58.7,0L58.7,40.3L0,40.3L0,0z"/><text class="st4"><tspan y="15.9" style="white-space:pre" x="9">元素 : </tspan><tspan y="33" style="white-space:pre" x="9">&lt;a></tspan></text></g><g ed:width="85" id="122" transform="matrix(1,0,0,1,218,427.86)" ed:parentid="120" ed:height="40.28571428571428"><path stroke-linejoin="round" stroke="#454545" fill="#ffffff" d="M0,0L85,0L85,40.3L0,40.3L0,0z"/><text class="st4"><tspan y="15.9" style="white-space:pre" x="9">文本  :</tspan><tspan y="33" style="white-space:pre" x="9">"我的链接"</tspan></text></g><g ed:width="58.71428571428572" id="124" transform="matrix(1,0,0,1,132.64,342.57)" ed:parentid="118" ed:height="40.28571428571428"><path stroke-linejoin="round" stroke="#454545" fill="#ffffff" d="M0,0L58.7,0L58.7,40.3L0,40.3L0,0z"/><text class="st4"><tspan y="15.9" style="white-space:pre" x="9">元素 : </tspan><tspan y="33" style="white-space:pre" x="9">&lt;h1></tspan></text></g><g ed:width="85" id="126" transform="matrix(1,0,0,1,119.5,427.86)" ed:parentid="124" ed:height="40.28571428571428"><path stroke-linejoin="round" stroke="#454545" fill="#ffffff" d="M0,0L85,0L85,40.3L0,40.3L0,0z"/><text class="st4"><tspan y="15.9" style="white-space:pre" x="9">文本 : </tspan><tspan y="33" style="white-space:pre" x="9">"我的标题"</tspan></text></g></svg>